<svg viewBox="0 0 36 35" fill="none" xmlns="http://www.w3.org/2000/svg">
<path d="M22.4739 17.975C24.2632 16.9536 25.6646 15.3692 26.46 13.4686C27.2554 11.568 27.4002 9.45779 26.8718 7.46638C26.3434 5.47497 25.1714 3.7141 23.5384 2.45787C21.9054 1.20163 19.9028 0.520508 17.8425 0.520508C15.7822 0.520508 13.7797 1.20163 12.1466 2.45787C10.5136 3.7141 9.34165 5.47497 8.81325 7.46638C8.28485 9.45779 8.42961 11.568 9.22501 13.4686C10.0204 15.3692 11.4218 16.9536 13.2111 17.975C5.985 19.8088 0.664062 25.8099 0.664062 32.9157C0.664062 33.1074 0.664062 33.2915 0.664062 33.4982C0.679473 33.7304 0.783704 33.9478 0.955126 34.1052C1.12655 34.2627 1.352 34.348 1.58471 34.3437H34.1041C34.3335 34.3432 34.5543 34.2557 34.7217 34.0987C34.8891 33.9418 34.9907 33.7271 35.0059 33.4982C35.0059 33.3065 35.0059 33.1224 35.0059 32.9157C35.0247 25.8099 29.7038 19.8088 22.4739 17.975ZM10.3101 9.86585C10.3064 8.37653 10.7442 6.91952 11.5682 5.67888C12.3922 4.43824 13.5653 3.46964 14.9395 2.89542C16.3137 2.3212 17.8272 2.16714 19.2889 2.4527C20.7506 2.73825 22.0949 3.4506 23.1519 4.49978C24.209 5.54895 24.9314 6.88786 25.2278 8.34738C25.5243 9.8069 25.3815 11.3216 24.8176 12.7C24.2537 14.0784 23.2939 15.2588 22.0594 16.092C20.825 16.9252 19.3713 17.3739 17.882 17.3813H17.8068C15.819 17.3694 13.9162 16.5732 12.5124 15.1658C11.1085 13.7584 10.317 11.8537 10.3101 9.86585ZM2.47904 32.5362C2.70451 25.1711 9.47969 19.2376 17.7843 19.2076H17.9045C26.2091 19.2376 32.9843 25.1673 33.2097 32.5362H2.47904Z" fill="black"/>
</svg>
