<svg width="31" height="36" viewBox="0 0 31 36" fill="none" xmlns="http://www.w3.org/2000/svg">
<path d="M27.7248 25.5114C27.6137 25.5114 27.5026 25.5114 27.3914 25.5114C27.447 25.5114 27.5026 25.5114 27.5026 25.567C26.6136 25.8448 26.169 27.1784 25.7245 27.9007C25.3356 28.5675 24.9466 29.2898 24.6133 29.9565C24.002 20.344 19.3347 11.0092 11.7224 4.95278C9.16648 2.89691 6.22159 1.22999 2.88775 1.00774C1.99873 0.952174 0.720758 1.0633 0.0539913 1.00774C5.72151 1.45225 10.6667 6.00849 14.0561 10.2314C17.5011 14.5098 19.8903 19.6217 21.0016 24.9558C21.335 26.5116 21.5572 28.1229 21.6684 29.6787C20.8905 28.4563 20.1681 27.2339 19.3902 26.0671C19.3347 25.9559 18.1123 26.0671 17.89 26.0671C17.7233 26.0671 16.5009 26.2338 16.3898 26.0671C18.3345 29.1231 20.2793 32.2347 22.224 35.2907C22.2796 35.4018 25.1689 35.3463 25.1689 35.2907C25.8357 33.5126 26.6136 31.7902 27.447 30.1232C27.836 29.2898 28.2805 28.5119 28.725 27.734C29.1139 27.0117 29.5584 25.9559 30.2808 25.5114C30.3919 25.5114 30.4475 25.5114 30.5586 25.567C30.503 25.567 30.3919 25.5114 30.3363 25.5114L30.2808 25.5114C29.5029 25.4003 28.4472 25.4559 27.7248 25.5114ZM30.1696 25.567C30.0585 25.567 29.8918 25.567 29.7807 25.567C29.8918 25.5114 30.0585 25.5114 30.1696 25.567Z" fill="black"/>
</svg>
