<svg viewBox="0 0 53 53" fill="none" xmlns="http://www.w3.org/2000/svg">
<path d="M51.7483 34.7505H47.7229C45.9686 33.0873 43.6432 32.1602 41.2258 32.1602C38.8083 32.1602 36.483 33.0873 34.7286 34.7505H26.3188C25.4894 34.7516 24.6871 35.046 24.054 35.5817C23.4208 36.1175 22.9976 36.86 22.8593 37.6778L15.2172 35.1299C14.6824 34.9517 14.113 34.9031 13.5558 34.9881C12.9986 35.0732 12.4696 35.2894 12.0123 35.619C11.5551 35.9485 11.1827 36.3821 10.9258 36.8838C10.669 37.3855 10.535 37.9411 10.535 38.5048V38.5623C10.5322 39.1632 10.6819 39.755 10.97 40.2823C11.2581 40.8096 11.6753 41.2553 12.1824 41.5776L27.4039 51.2636C28.3986 51.8951 29.5128 52.3147 30.6769 52.4963C31.8411 52.6778 33.0301 52.6174 34.1698 52.3188L47.4774 48.8166H51.7483C51.9809 48.8166 52.2039 48.7243 52.3684 48.5598C52.5328 48.3954 52.6252 48.1723 52.6252 47.9398V35.6274C52.6252 35.3948 52.5328 35.1718 52.3684 35.0073C52.2039 34.8429 51.9809 34.7505 51.7483 34.7505ZM50.8714 47.0629H47.3639C47.2886 47.0629 47.2136 47.0726 47.1408 47.0918L33.723 50.6229C32.817 50.8599 31.8719 50.9078 30.9466 50.7635C30.0213 50.6191 29.1357 50.2857 28.345 49.7841L13.124 40.0981C12.8663 39.9335 12.6545 39.7064 12.5085 39.4378C12.3624 39.1692 12.2868 38.868 12.2887 38.5623V38.5048C12.2893 38.0274 12.4786 37.5697 12.8154 37.2315C13.1522 36.8932 13.609 36.7018 14.0863 36.6992C14.2822 36.6994 14.4767 36.7313 14.6623 36.7936L23.0771 39.5997C23.3421 40.2412 23.7917 40.7896 24.3688 41.1752C24.946 41.5609 25.6247 41.7663 26.3188 41.7655H35.0876C35.3202 41.7655 35.5432 41.6732 35.7077 41.5087C35.8721 41.3443 35.9645 41.1212 35.9645 40.8887C35.9645 40.6561 35.8721 40.4331 35.7077 40.2686C35.5432 40.1042 35.3202 40.0118 35.0876 40.0118H26.3188C25.9291 40.0124 25.5503 39.8829 25.2424 39.6439C24.9345 39.4049 24.7152 39.07 24.6191 38.6923V38.6901C24.5535 38.4313 24.5479 38.1609 24.6026 37.8995C24.6574 37.6382 24.771 37.3927 24.9349 37.1819C25.0989 36.9711 25.3087 36.8005 25.5485 36.6831C25.7883 36.5657 26.0518 36.5045 26.3188 36.5043H35.0876C35.2028 36.5043 35.3168 36.4816 35.4232 36.4375C35.5296 36.3935 35.6262 36.3289 35.7077 36.2475L35.7965 36.1587C37.2375 34.7208 39.19 33.9133 41.2257 33.9133C43.2613 33.9133 45.2139 34.7208 46.6549 36.1587L46.7436 36.2475C46.8251 36.3289 46.9218 36.3935 47.0282 36.4376C47.1347 36.4816 47.2487 36.5043 47.3639 36.5043H50.8714V47.0629Z" fill="black"/>
<path d="M14.6497 23.9546C14.6636 23.9583 14.6776 23.9617 14.6919 23.9648C15.269 24.0889 15.8577 24.1513 16.448 24.1511C16.4885 24.1511 16.5289 24.1499 16.5693 24.1494C16.865 24.7371 17.3415 25.2143 17.9287 25.5109C18.516 25.8075 19.1829 25.9078 19.8314 25.797L20.8689 25.6206C21.4762 26.0469 22.2273 26.216 22.9587 26.0911L25.0565 25.7344C25.2357 26.0579 25.4594 26.3547 25.7209 26.6162L32.0564 32.9516C32.1378 33.0331 32.2345 33.0976 32.3409 33.1417C32.4473 33.1858 32.5613 33.2085 32.6764 33.2085C32.7916 33.2085 32.9056 33.1858 33.012 33.1417C33.1184 33.0976 33.2151 33.0331 33.2965 32.9516L39.632 26.6162C40.372 25.8761 40.7878 24.8724 40.7878 23.8258C40.7878 22.7792 40.372 21.7755 39.632 21.0355C38.8919 20.2954 37.8882 19.8797 36.8416 19.8797C35.795 19.8797 34.7913 20.2954 34.0513 21.0355L32.6762 22.4103L32.3054 22.0395C32.9321 21.493 33.3528 20.7485 33.4975 19.9297C33.6423 19.1109 33.5023 18.2672 33.101 17.539C33.1236 17.4866 33.141 17.432 33.1529 17.3762L33.5171 15.6845C33.6729 14.9525 33.6569 14.1943 33.4706 13.4695C33.2842 12.7446 32.9325 12.0728 32.443 11.5067L29.196 7.76895C28.7338 7.23549 28.1598 6.81028 27.5148 6.52351C26.8698 6.23673 26.1696 6.09541 25.4639 6.10957L12.212 6.36167L1.28053 0.912411C1.14684 0.845768 0.998335 0.814384 0.849111 0.821236C0.699886 0.828087 0.554886 0.872947 0.427863 0.951561C0.30084 1.03018 0.196007 1.13994 0.123306 1.27043C0.0506048 1.40093 0.0124468 1.54784 0.0124512 1.69722V14.8504C0.0124591 15.0191 0.0611272 15.1842 0.152619 15.3259C0.244112 15.4677 0.374544 15.58 0.528276 15.6495L7.3504 18.7316L8.6678 20.3476C10.1553 22.1673 12.2159 23.4289 14.513 23.9263C14.5586 23.9361 14.6041 23.9456 14.6497 23.9546ZM18.5956 23.8731C18.9619 23.7764 19.3212 23.6549 19.671 23.5096C19.6844 23.6856 19.7142 23.86 19.76 24.0305L19.5379 24.0683C19.2103 24.1243 18.8735 24.0546 18.5951 23.8731H18.5956ZM22.6653 24.3624C22.4599 24.3973 22.2488 24.3712 22.0581 24.2873C21.8674 24.2034 21.7055 24.0653 21.5926 23.8903C21.5022 23.7497 21.4448 23.5906 21.4248 23.4247C21.4048 23.2588 21.4226 23.0905 21.477 22.9325C21.5343 22.7538 21.6421 22.5956 21.7876 22.4771L22.6286 22.0575L24.8609 22.3299C24.666 22.8045 24.5655 23.3126 24.5651 23.8257C24.5651 23.8967 24.5673 23.9675 24.571 24.038L22.6653 24.3624ZM32.0567 24.2705C32.1381 24.3519 32.2348 24.4165 32.3412 24.4606C32.4476 24.5047 32.5616 24.5274 32.6768 24.5274C32.7919 24.5274 32.906 24.5047 33.0123 24.4606C33.1187 24.4165 33.2154 24.3519 33.2968 24.2705L35.2917 22.2756C35.4953 22.072 35.737 21.9105 36.003 21.8004C36.269 21.6902 36.5541 21.6335 36.842 21.6335C37.1299 21.6335 37.415 21.6902 37.681 21.8004C37.947 21.9105 38.1887 22.072 38.3923 22.2756C38.5959 22.4792 38.7573 22.7209 38.8675 22.9869C38.9777 23.2529 39.0344 23.538 39.0344 23.8259C39.0344 24.1138 38.9777 24.3989 38.8675 24.6649C38.7573 24.9309 38.5959 25.1726 38.3923 25.3761L32.6762 31.0913L26.961 25.3763C26.5947 25.0102 26.3699 24.5262 26.3265 24.0101C26.2832 23.4941 26.4241 22.9793 26.7243 22.5573L29.4878 22.8945C29.8712 22.9412 30.2596 22.9272 30.6387 22.8528L32.0567 24.2705ZM10.0276 19.2394L8.57979 17.4637C8.49403 17.3584 8.38493 17.2746 8.26115 17.2188L1.76621 14.2844V3.11415L11.6221 8.02741C11.7492 8.08915 11.8888 8.12066 12.0301 8.11948L25.4968 7.86311C25.5165 7.86311 25.536 7.86245 25.5556 7.86245C25.995 7.86195 26.4293 7.95603 26.829 8.1383C27.2288 8.32057 27.5846 8.58675 27.8723 8.91876L31.1198 12.6565C31.4312 13.0167 31.655 13.4443 31.7736 13.9055C31.8922 14.3668 31.9023 14.8492 31.8032 15.315L31.6358 16.0927C31.3383 15.9348 31.0203 15.8189 30.6909 15.7483L29.0931 15.4043L29.2777 14.5471C29.3266 14.3198 29.2832 14.0823 29.1571 13.8869C29.0309 13.6915 28.8323 13.5542 28.605 13.5053C28.3776 13.4563 28.1401 13.4997 27.9447 13.6258C27.7494 13.752 27.6121 13.9506 27.5631 14.178L27.3786 15.0352L26.123 14.7648L25.1344 12.2604C25.049 12.0441 24.8812 11.8706 24.6678 11.778C24.4545 11.6854 24.2131 11.6814 23.9968 11.7668C23.7804 11.8521 23.6069 12.02 23.5143 12.2333C23.4217 12.4467 23.4177 12.6881 23.5031 12.9044L24.0621 14.3212L22.2206 13.9248C22.1074 13.8988 21.9902 13.8955 21.8757 13.9152C21.7612 13.9349 21.6518 13.9772 21.5538 14.0395C21.4558 14.1019 21.3712 14.183 21.3048 14.2784C21.2384 14.3737 21.1917 14.4813 21.1672 14.5948C21.1428 14.7084 21.1411 14.8256 21.1624 14.9398C21.1836 15.054 21.2273 15.1629 21.291 15.26C21.3547 15.3572 21.437 15.4407 21.5332 15.5058C21.6294 15.5708 21.7376 15.6161 21.8515 15.6391L30.3218 17.4629C30.7932 17.5641 31.2075 17.8434 31.4782 18.2424C31.749 18.6414 31.8554 19.1295 31.7754 19.605C31.6954 20.0805 31.435 20.5068 31.0485 20.7952C30.6621 21.0836 30.1793 21.2118 29.7006 21.1532L22.5793 20.2843C22.4086 20.2636 22.2356 20.2934 22.0818 20.3701L21.4069 20.7067C21.4048 20.7074 21.4026 20.7079 21.4005 20.7086C21.2159 20.7754 21.0398 20.8637 20.8759 20.9717L19.4113 21.7022C18.0825 22.3629 16.5708 22.5599 15.117 22.2618C15.0922 22.2548 15.0669 22.2488 15.0414 22.2439C14.9878 22.2337 14.9342 22.2228 14.8817 22.211C12.974 21.7981 11.2626 20.7505 10.0271 19.2394H10.0276Z" fill="black"/>
</svg>
