<svg viewBox="0 0 48 45" fill="none" xmlns="http://www.w3.org/2000/svg">
<path d="M28.1041 20.1139C27.75 19.9115 27.2948 20.0127 27.0419 20.3668L22.7426 27.7009L21.2758 25.1719C21.0735 24.8178 20.6182 24.6661 20.2136 24.919C19.8595 25.1213 19.7078 25.5765 19.9607 25.9812L22.0851 29.6735C22.2368 29.9264 22.4897 30.0276 22.7426 30.0276C22.9955 30.0276 23.2484 29.8758 23.4001 29.6735L28.357 21.2266C28.5593 20.7714 28.4582 20.3162 28.1041 20.1139Z" fill="black"/>
<path d="M24.1587 14.8535C18.5949 14.8535 14.0427 19.4057 14.0427 24.9695C14.0427 30.5334 18.5949 35.0856 24.1587 35.0856C29.7225 35.0856 34.2748 30.5334 34.2748 24.9695C34.2748 19.4057 29.7225 14.8535 24.1587 14.8535ZM24.1587 33.6188C19.4042 33.6188 15.5601 29.7747 15.5601 25.0201C15.5601 20.2656 19.4042 16.4215 24.1587 16.4215C28.9133 16.4215 32.7574 20.2656 32.7574 25.0201C32.7574 29.7747 28.9133 33.6188 24.1587 33.6188Z" fill="black"/>
<path d="M47.6281 17.1805C47.527 16.9276 47.3752 16.7758 47.1223 16.6747L32.9093 12.7294L24.8165 0.489028C24.513 0.0843866 23.8555 0.0843866 23.552 0.489028L15.4086 12.78L1.19554 16.7253C0.942641 16.7758 0.74032 16.9782 0.68974 17.2311C0.58858 17.484 0.63916 17.7369 0.841481 17.9392L9.99649 29.4209L9.33895 44.1397C9.33895 44.3926 9.44011 44.6455 9.64243 44.7972C9.84475 44.949 10.0977 44.9996 10.3506 44.8984L24.1589 39.7392L37.9673 44.8984C38.0685 44.949 38.1191 44.949 38.2202 44.949C38.372 44.949 38.5237 44.8984 38.6754 44.7972C38.8778 44.6455 38.9789 44.3926 38.9789 44.1397L38.3214 29.4209L47.527 17.8886C47.6787 17.6863 47.7293 17.4334 47.6281 17.1805ZM36.9557 28.7128C36.8546 28.8645 36.804 29.0162 36.804 29.2186L37.4109 43.0775L24.4118 38.2218C24.3107 38.1712 24.2601 38.1712 24.1589 38.1712C24.0578 38.1712 23.9566 38.1712 23.906 38.2218L10.9069 43.0775L11.5139 29.2186C11.5139 29.0162 11.4633 28.8645 11.3622 28.7128L2.71295 17.838L16.0661 14.1457C16.2179 14.0951 16.4202 13.9939 16.5213 13.8422L24.1589 2.25933L31.7965 13.8422C31.8977 13.9939 32.0494 14.0951 32.2518 14.1457L45.6049 17.838L36.9557 28.7128Z" fill="black"/>
</svg>
