<svg width="37" height="32" viewBox="0 0 37 32" fill="none" xmlns="http://www.w3.org/2000/svg">
<path d="M32.5647 2.15666C30.8868 0.775755 28.7342 0.0152108 26.5027 0.0152108C23.9223 0.0152108 21.4257 1.03804 19.6541 2.82224C19.2409 3.23663 18.863 3.69337 18.5124 4.19944C16.7017 1.58193 13.7765 0 10.6245 0C10.047 0 9.4613 0.0530327 8.88344 0.157453C5.90049 0.698879 3.55603 2.33425 1.91524 5.01671C-0.433747 8.86219 -0.619769 12.4133 1.3448 15.8732C2.39865 17.7264 3.76969 19.5394 5.53875 21.4149C8.79352 24.8636 12.6455 28.1356 17.6652 31.7151C17.9325 31.9046 18.2171 32 18.5096 32C18.9633 32 19.2701 31.771 19.445 31.6395C23.9063 28.467 27.5669 25.4104 30.6381 22.2918C32.3655 20.5372 34.3223 18.3813 35.7527 15.7005C36.3528 14.5716 37.0383 13.0563 36.9983 11.3444C36.9084 7.59763 35.4173 4.50612 32.5647 2.15666ZM33.9213 14.7324C32.6163 17.1797 30.7812 19.1965 29.1594 20.8451C26.235 23.8145 22.7485 26.7346 18.503 29.7714C13.7773 26.3773 10.1287 23.2653 7.04838 20.0003C5.39357 18.2457 4.11905 16.563 3.14852 14.8549C1.5663 12.0676 1.73623 9.28275 3.68596 6.09216C5.00544 3.93386 6.88009 2.62121 9.25342 2.18996C9.70796 2.10732 10.1695 2.06621 10.6245 2.06621C13.4527 2.06621 15.9568 3.6206 17.3159 6.21344C17.3934 6.36432 17.4697 6.5082 17.5955 6.74171C17.7754 7.07964 18.1272 7.2893 18.5091 7.2893C18.5149 7.2893 18.5211 7.2893 18.5269 7.2893C18.915 7.28272 19.2673 7.06032 19.4388 6.71293C19.9342 5.71148 20.47 4.93778 21.1266 4.2759C22.5129 2.8802 24.4722 2.08142 26.5031 2.08142C28.2545 2.08142 29.9382 2.67383 31.244 3.7501C33.614 5.69956 34.8523 8.27225 34.9273 11.3934C34.955 12.6193 34.4336 13.7687 33.9213 14.7324Z" fill="#02C39A"/>
</svg>
