<svg viewBox="0 0 39 34" fill="none" xmlns="http://www.w3.org/2000/svg">
<path d="M33.6909 2.91787C31.9932 1.51603 29.8151 0.743957 27.5573 0.743957C24.9465 0.743957 22.4203 1.78229 20.6279 3.59353C20.2097 4.01421 19.8274 4.47787 19.4727 4.99161C17.6406 2.33443 14.6808 0.728516 11.4915 0.728516C10.9072 0.728516 10.3146 0.782352 9.72993 0.888356C6.71175 1.43799 4.33961 3.09816 2.67944 5.82128C0.302708 9.72505 0.114489 13.33 2.10226 16.8423C3.16856 18.7237 4.55579 20.5641 6.34575 22.468C9.63895 25.9691 13.5365 29.2906 18.6155 32.9244C18.8859 33.1168 19.1739 33.2136 19.4697 33.2136C19.9288 33.2136 20.2393 32.9812 20.4163 32.8476C24.9302 29.627 28.634 26.5241 31.7415 23.3582C33.4893 21.577 35.4692 19.3885 36.9165 16.667C37.5237 15.521 38.2174 13.9827 38.1769 12.2449C38.0859 8.44132 36.5772 5.30295 33.6909 2.91787ZM35.0635 15.6842C33.7431 18.1686 31.8864 20.2161 30.2454 21.8896C27.2865 24.904 23.7587 27.8684 19.4631 30.9512C14.6816 27.5057 10.9899 24.3465 7.8732 21.032C6.19885 19.2508 4.90927 17.5426 3.92728 15.8086C2.32638 12.979 2.49832 10.152 4.47107 6.91303C5.80613 4.72201 7.70293 3.38946 10.1043 2.95167C10.5642 2.86778 11.0312 2.82605 11.4915 2.82605C14.3532 2.82605 16.8868 4.404 18.262 7.03615C18.3404 7.18931 18.4176 7.33538 18.5449 7.57242C18.7269 7.91548 19.0829 8.12832 19.4693 8.12832C19.4752 8.12832 19.4814 8.12832 19.4873 8.12832C19.88 8.12164 20.2364 7.89586 20.41 7.54321C20.9112 6.52658 21.4533 5.74115 22.1177 5.06924C23.5204 3.65238 25.5028 2.84149 27.5577 2.84149C29.3297 2.84149 31.0333 3.44288 32.3546 4.53546C34.7526 6.51448 36.0055 9.12617 36.0814 12.2946C36.1094 13.5391 35.5819 14.706 35.0635 15.6842Z" fill="black"/>
</svg>
