<svg width="75" height="34" viewBox="0 0 75 34" fill="none" xmlns="http://www.w3.org/2000/svg">
<path d="M36.8037 21.2388V23.0286C36.6601 23.0004 36.5144 22.9851 36.3681 22.9828C35.6361 22.9828 35.0639 23.1963 34.6515 23.6234C34.2391 24.0504 34.0335 24.6647 34.0348 25.4662V29.3625H32.1553V21.3284H33.9451V22.5015C34.4868 21.6597 35.4396 21.2388 36.8037 21.2388Z" fill="#02C39A"/>
<path d="M45.8464 25.9471H39.5436C39.6356 26.5114 39.9459 27.0169 40.4074 27.3545C40.9147 27.7125 41.5254 27.8944 42.146 27.8724C42.55 27.8856 42.9524 27.8151 43.3279 27.6651C43.7033 27.5152 44.0436 27.2892 44.3274 27.0012L45.3358 28.1597C44.9686 28.595 44.4979 28.9311 43.9669 29.1369C43.289 29.3856 42.5683 29.4963 41.8471 29.4627C41.1259 29.4291 40.4186 29.2517 39.7669 28.9411C39.1184 28.6121 38.5779 28.104 38.2095 27.4771C37.8382 26.8293 37.6485 26.0934 37.6604 25.3469C37.6498 24.6076 37.8341 23.8785 38.1948 23.2331C38.5422 22.616 39.0558 22.1088 39.6772 21.7691C40.3321 21.4133 41.0677 21.2324 41.8129 21.2438C42.5457 21.2308 43.2693 21.4093 43.912 21.7617C44.5229 22.1022 45.0239 22.6102 45.3559 23.2258C45.7111 23.8907 45.8906 24.6353 45.8775 25.389C45.8775 25.5207 45.8665 25.7074 45.8464 25.9471ZM40.2884 23.277C39.8672 23.6403 39.5959 24.147 39.5271 24.699H44.0877C44.0274 24.1455 43.7591 23.6356 43.3371 23.2725C42.9151 22.9093 42.371 22.7199 41.8147 22.7427C41.2575 22.7265 40.7139 22.9168 40.2884 23.277Z" fill="#02C39A"/>
<path d="M55.2051 25.9471H48.9005C48.9949 26.511 49.3054 27.0159 49.7661 27.3544C50.2735 27.7124 50.8842 27.8944 51.5047 27.8723C51.9088 27.8856 52.3112 27.815 52.6866 27.6651C53.0621 27.5152 53.4024 27.2891 53.6862 27.0012L54.6945 28.1596C54.3274 28.595 53.8567 28.9311 53.3256 29.1369C52.6481 29.3853 51.9277 29.4959 51.2068 29.4623C50.4859 29.4286 49.779 29.2514 49.1275 28.9411C48.479 28.6121 47.9385 28.104 47.5701 27.477C47.1988 26.8293 47.0091 26.0933 47.021 25.3468C47.0104 24.6075 47.1947 23.8785 47.5554 23.2331C47.9026 22.6165 48.4155 22.1093 49.036 21.769C49.6916 21.4134 50.4277 21.2326 51.1735 21.2438C51.9063 21.2312 52.6297 21.4097 53.2726 21.7617C53.8835 22.1022 54.3845 22.6101 54.7165 23.2258C55.0711 23.8908 55.25 24.6354 55.2362 25.3889C55.2362 25.5207 55.2253 25.7073 55.2051 25.9471ZM49.649 23.277C49.229 23.641 48.9585 24.1475 48.8895 24.699H53.4483C53.3883 24.1529 53.1274 23.6486 52.7162 23.2843C52.2916 22.9149 51.7434 22.7189 51.1808 22.7353C50.6208 22.7206 50.0753 22.9136 49.649 23.277V23.277Z" fill="#02C39A"/>
<path d="M64.039 22.1259C64.649 22.7176 64.954 23.5955 64.954 24.7594V29.362H63.0745V24.9991C63.0745 24.2982 62.9098 23.7675 62.5786 23.4124C62.2473 23.0574 61.7752 22.8781 61.1639 22.8781C60.861 22.8614 60.558 22.9084 60.2744 23.0158C59.9907 23.1233 59.7327 23.289 59.5169 23.5021C59.1155 23.9194 58.9148 24.519 58.9148 25.3011V29.362H57.0408V21.328H58.8324V22.3656C59.1475 21.992 59.5507 21.7027 60.0055 21.5238C60.5141 21.3267 61.0559 21.2297 61.6013 21.2383C62.614 21.2383 63.4265 21.5342 64.039 22.1259Z" fill="#02C39A"/>
<path d="M74.7211 21.3281L70.9603 30.01C70.6089 30.8823 70.1819 31.4966 69.6793 31.8529C69.1417 32.2214 68.5006 32.4086 67.8492 32.3873C67.4447 32.3864 67.043 32.3203 66.6596 32.1914C66.3034 32.0788 65.9753 31.8917 65.697 31.6424L66.4492 30.2589C66.6357 30.4328 66.8529 30.5706 67.0897 30.6652C67.326 30.7627 67.5789 30.8137 67.8345 30.8152C68.1292 30.8267 68.4188 30.7362 68.6544 30.559C68.9167 30.3237 69.1203 30.0305 69.2492 29.7025L69.3846 29.3859L65.8782 21.3208H67.8345L70.3619 27.2649L72.9039 21.3208L74.7211 21.3281Z" fill="#02C39A"/>
<path d="M23.8615 16.5039H29.4121V29.0985C27.7147 30.4307 25.7875 31.4405 23.7261 32.0779C21.5663 32.7686 19.312 33.1186 17.0445 33.1155C13.8235 33.1155 10.9198 32.4158 8.33332 31.0164C5.80827 29.6791 3.69993 27.6727 2.23917 25.2169C0.764131 22.75 0.0266113 19.9664 0.0266113 16.8663C0.0266113 13.7662 0.764131 10.982 2.23917 8.51384C3.70487 6.0543 5.82138 4.04735 8.35528 2.71433C10.9576 1.31493 13.8858 0.615234 17.1396 0.615234C19.7884 0.615234 22.1961 1.0514 24.3629 1.92374C26.4634 2.75159 28.3356 4.06921 29.8239 5.7669L26.1235 9.37763C23.7151 6.97169 20.8108 5.76812 17.4105 5.7669C15.1827 5.7669 13.2044 6.23356 11.4756 7.1669C9.77839 8.06634 8.37 9.42715 7.41279 11.0924C6.43675 12.7785 5.94873 14.705 5.94873 16.8718C5.91768 18.8642 6.42339 20.8282 7.41279 22.5578C8.37639 24.2302 9.78206 25.6049 11.4756 26.5309C13.2044 27.4935 15.168 27.9749 17.3666 27.9749C19.8335 27.9749 22.0003 27.4331 23.867 26.3497L23.8615 16.5039Z" fill="#02C39A"/>
<path d="M34.1958 7.39014C32.3017 14.0425 17.9374 6.35615 14.1455 19.6608C12.7254 24.6496 13.9625 26.7981 13.9625 26.7981L15.6645 27.2831C15.6645 27.2831 13.5855 24.893 15.0057 19.9042C15.9518 16.5789 24.555 15.4333 24.555 15.4333L20.5288 16.6924L15.7706 20.5136C26.1252 25.2553 35.6306 14.6354 34.1958 7.39014Z" fill="#02C39A"/>
</svg>
