<svg width="57" height="54" viewBox="0 0 57 54" fill="none" xmlns="http://www.w3.org/2000/svg">
<path d="M39.1156 26.2709H48.1054V46.6691C45.3563 48.8266 42.235 50.4621 38.8963 51.4944C35.3983 52.6131 31.7473 53.18 28.0748 53.175C22.8582 53.175 18.1553 52.0418 13.9662 49.7753C9.87666 47.6093 6.462 44.3597 4.09615 40.3825C1.70718 36.387 0.512695 31.8788 0.512695 26.8578C0.512695 21.8368 1.70718 17.3276 4.09615 13.3302C6.46999 9.3467 9.89789 6.09625 14.0018 3.93729C18.2166 1.67083 22.9589 0.537598 28.2289 0.537598C32.5188 0.537598 36.4184 1.24401 39.9278 2.65685C43.3296 3.99764 46.3619 6.13164 48.7723 8.88122L42.7791 14.7292C38.8785 10.8325 34.1747 8.88319 28.6676 8.88122C25.0594 8.88122 21.8554 9.63703 19.0554 11.1487C16.3067 12.6054 14.0256 14.8094 12.4753 17.5064C10.8945 20.2372 10.1041 23.3573 10.1041 26.8667C10.0539 30.0935 10.8729 33.2745 12.4753 36.0758C14.036 38.7844 16.3126 41.0108 19.0554 42.5106C21.8554 44.0697 25.0357 44.8492 28.5965 44.8492C32.5919 44.8492 36.1013 43.9718 39.1245 42.2172L39.1156 26.2709Z" fill="#02C39A"/>
<path d="M55.8535 11.5103C52.7858 22.2843 29.5215 9.8356 23.3801 31.3838C21.08 39.4636 23.0837 42.9433 23.0837 42.9433L25.8402 43.7288C25.8402 43.7288 22.4731 39.8578 24.7732 31.778C26.3055 26.3924 40.2392 24.537 40.2392 24.537L33.7185 26.5762L26.0121 32.765C42.7823 40.4447 58.1773 23.2447 55.8535 11.5103Z" fill="#02C39A"/>
</svg>
