<svg width="409" height="178" viewBox="0 0 409 178" fill="none" xmlns="http://www.w3.org/2000/svg">
<path d="M201.301 112.895V122.675C200.517 122.522 199.72 122.438 198.921 122.425C194.921 122.425 191.794 123.592 189.541 125.925C187.288 128.259 186.164 131.615 186.171 135.995V157.285H175.901V113.385H185.681V119.795C188.641 115.195 193.848 112.895 201.301 112.895Z" fill="white"/>
<path d="M250.711 138.625H216.271C216.774 141.709 218.469 144.471 220.991 146.315C223.763 148.272 227.1 149.266 230.491 149.145C232.699 149.218 234.898 148.832 236.949 148.013C239.001 147.194 240.86 145.959 242.411 144.385L247.921 150.715C245.915 153.094 243.343 154.931 240.441 156.055C236.737 157.414 232.799 158.019 228.858 157.835C224.917 157.651 221.052 156.683 217.491 154.985C213.947 153.188 210.994 150.411 208.981 146.985C206.952 143.446 205.916 139.424 205.981 135.345C205.923 131.306 206.93 127.322 208.901 123.795C210.799 120.423 213.606 117.652 217.001 115.795C220.58 113.851 224.599 112.863 228.671 112.925C232.675 112.854 236.629 113.829 240.141 115.755C243.479 117.616 246.217 120.391 248.031 123.755C249.972 127.388 250.953 131.457 250.881 135.575C250.881 136.295 250.821 137.315 250.711 138.625ZM220.341 124.035C218.039 126.02 216.557 128.789 216.181 131.805H241.101C240.771 128.781 239.305 125.995 237 124.01C234.694 122.026 231.721 120.991 228.681 121.115C225.636 121.027 222.666 122.067 220.341 124.035Z" fill="white"/>
<path d="M301.851 138.625H267.401C267.916 141.707 269.613 144.465 272.131 146.315C274.903 148.272 278.24 149.266 281.631 149.145C283.839 149.218 286.038 148.832 288.089 148.013C290.141 147.194 292 145.959 293.551 144.385L299.061 150.715C297.055 153.094 294.482 154.931 291.581 156.055C287.878 157.412 283.942 158.017 280.003 157.833C276.064 157.649 272.201 156.681 268.641 154.985C265.097 153.188 262.144 150.411 260.131 146.985C258.102 143.446 257.066 139.424 257.131 135.345C257.073 131.306 258.08 127.322 260.051 123.795C261.948 120.426 264.751 117.655 268.141 115.795C271.723 113.852 275.746 112.864 279.821 112.925C283.825 112.857 287.778 113.832 291.291 115.755C294.629 117.616 297.367 120.391 299.181 123.755C301.118 127.389 302.096 131.458 302.021 135.575C302.021 136.295 301.961 137.315 301.851 138.625ZM271.491 124.035C269.196 126.024 267.717 128.792 267.341 131.805H292.251C291.923 128.821 290.498 126.066 288.251 124.075C285.93 122.057 282.935 120.986 279.861 121.075C276.801 120.995 273.82 122.049 271.491 124.035V124.035Z" fill="white"/>
<path d="M350.121 117.745C353.454 120.979 355.121 125.775 355.121 132.135V157.285H344.851V133.445C344.851 129.615 343.951 126.715 342.141 124.775C340.331 122.835 337.751 121.855 334.411 121.855C332.756 121.764 331.1 122.021 329.55 122.608C328 123.195 326.59 124.1 325.411 125.265C323.217 127.545 322.121 130.822 322.121 135.095V157.285H311.881V113.385H321.671V119.055C323.393 117.014 325.596 115.433 328.081 114.455C330.86 113.378 333.821 112.848 336.801 112.895C342.334 112.895 346.774 114.512 350.121 117.745Z" fill="white"/>
<path d="M408.491 113.385L387.941 160.825C386.021 165.592 383.687 168.949 380.941 170.895C378.003 172.909 374.5 173.932 370.941 173.815C368.731 173.811 366.536 173.449 364.441 172.745C362.494 172.13 360.701 171.107 359.181 169.745L363.291 162.185C364.31 163.136 365.496 163.889 366.791 164.405C368.082 164.938 369.464 165.217 370.861 165.225C372.471 165.288 374.053 164.794 375.341 163.825C376.774 162.54 377.887 160.937 378.591 159.145L379.331 157.415L360.171 113.345H370.861L384.671 145.825L398.561 113.345L408.491 113.385Z" fill="white"/>
<path d="M130.581 87.0251H160.911V155.845C151.636 163.124 141.105 168.642 129.841 172.125C118.039 175.899 105.721 177.812 93.3308 177.795C75.7308 177.795 59.8641 173.972 45.7308 166.325C31.9333 159.017 20.4128 148.054 12.4308 134.635C4.37082 121.155 0.34082 105.945 0.34082 89.0051C0.34082 72.0651 4.37082 56.8517 12.4308 43.3651C20.4398 29.9255 32.0049 18.959 45.8508 11.6751C60.0708 4.02841 76.0708 0.205078 93.8508 0.205078C108.324 0.205078 121.481 2.58841 133.321 7.35508C144.798 11.8787 155.029 19.0785 163.161 28.3551L142.941 48.0851C129.781 34.9384 113.911 28.3617 95.3308 28.3551C83.1575 28.3551 72.3475 30.9051 62.9008 36.0051C53.6271 40.9198 45.9313 48.3557 40.7008 57.4551C35.3675 66.6684 32.7008 77.1951 32.7008 89.0351C32.5312 99.922 35.2944 110.654 40.7008 120.105C45.9661 129.244 53.6471 136.755 62.9008 141.815C72.3475 147.075 83.0775 149.705 95.0908 149.705C108.571 149.705 120.411 146.745 130.611 140.825L130.581 87.0251Z" fill="white"/>
<path d="M187.051 37.2251C176.701 73.5751 98.2109 31.5751 77.4909 104.275C69.7309 131.535 76.4909 143.275 76.4909 143.275L85.7909 145.925C85.7909 145.925 74.4309 132.865 82.1909 105.605C87.3609 87.4351 134.371 81.1751 134.371 81.1751L112.371 88.0551L86.3709 108.935C142.951 134.845 194.891 76.8151 187.051 37.2251Z" fill="white"/>
</svg>
