<?xml version="1.0" encoding="utf-8"?>
<!-- Generator: Adobe Illustrator 23.1.1, SVG Export Plug-In . SVG Version: 6.00 Build 0)  -->
<svg version="1.1" id="Layer_1" xmlns="http://www.w3.org/2000/svg" xmlns:xlink="http://www.w3.org/1999/xlink" x="0px" y="0px"
	 viewBox="0 0 225 225" style="enable-background:new 0 0 225 225;" xml:space="preserve">
<style type="text/css">
	.st0{fill:#FFFFFF;}
</style>
<path d="M60.6,18.9c1.5-0.9,2.7-2.2,3.4-3.9c0.7-1.6,0.8-3.5,0.3-5.2c-0.4-1.7-1.4-3.2-2.8-4.3c-1.4-1.1-3.1-1.7-4.8-1.7
	c-1.7,0-3.4,0.6-4.8,1.7c-1.4,1.1-2.4,2.6-2.8,4.3c-0.4,1.7-0.3,3.5,0.3,5.2c0.7,1.6,1.9,3,3.4,3.9c-6.1,1.6-10.6,6.8-10.6,12.9
	c0,0.2,0,0.3,0,0.5c0,0.2,0.1,0.4,0.2,0.5c0.1,0.1,0.3,0.2,0.5,0.2h27.6c0.2,0,0.4-0.1,0.5-0.2c0.1-0.1,0.2-0.3,0.2-0.5
	c0-0.2,0-0.3,0-0.5C71.3,25.6,66.8,20.5,60.6,18.9z M50.3,11.9c0-1.3,0.4-2.5,1.1-3.6c0.7-1.1,1.7-1.9,2.9-2.4s2.5-0.6,3.7-0.4
	c1.2,0.2,2.4,0.9,3.3,1.8c0.9,0.9,1.5,2.1,1.8,3.3c0.3,1.3,0.1,2.6-0.3,3.8c-0.5,1.2-1.3,2.2-2.3,2.9c-1,0.7-2.3,1.1-3.5,1.1h-0.1
	c-1.7,0-3.3-0.7-4.5-1.9C51,15.3,50.3,13.6,50.3,11.9z M43.7,31.4c0.2-6.3,5.9-11.5,13-11.5h0.1c7,0,12.8,5.1,13,11.5H43.7z"/>
<path d="M109,23.2h-2.4c-1.1-1-2.5-1.6-3.9-1.6c-1.5,0-2.9,0.6-3.9,1.6h-5.1c-0.5,0-1,0.2-1.4,0.5c-0.4,0.3-0.6,0.8-0.7,1.3L87,23.5
	c-0.3-0.1-0.7-0.1-1-0.1c-0.3,0.1-0.7,0.2-0.9,0.4c-0.3,0.2-0.5,0.5-0.7,0.8c-0.2,0.3-0.2,0.6-0.2,1v0c0,0.4,0.1,0.7,0.3,1
	s0.4,0.6,0.7,0.8l9.2,5.8c0.6,0.4,1.3,0.6,2,0.7c0.7,0.1,1.4,0.1,2.1-0.1l8-2.1h2.6c0.1,0,0.3-0.1,0.4-0.2c0.1-0.1,0.2-0.2,0.2-0.4
	v-7.4c0-0.1-0.1-0.3-0.2-0.4C109.3,23.3,109.1,23.2,109,23.2z M108.5,30.6h-2.1c0,0-0.1,0-0.1,0l-8.1,2.1c-0.5,0.1-1.1,0.2-1.7,0.1
	c-0.6-0.1-1.1-0.3-1.6-0.6l-9.2-5.8c-0.2-0.1-0.3-0.2-0.4-0.4c-0.1-0.2-0.1-0.3-0.1-0.5v0c0-0.3,0.1-0.6,0.3-0.8
	c0.2-0.2,0.5-0.3,0.8-0.3c0.1,0,0.2,0,0.3,0.1l5.1,1.7c0.2,0.4,0.4,0.7,0.8,0.9c0.3,0.2,0.8,0.4,1.2,0.4H99c0.1,0,0.3-0.1,0.4-0.2
	c0.1-0.1,0.2-0.2,0.2-0.4c0-0.1-0.1-0.3-0.2-0.4c-0.1-0.1-0.2-0.2-0.4-0.2h-5.3c-0.2,0-0.5-0.1-0.6-0.2c-0.2-0.1-0.3-0.3-0.4-0.6v0
	c0-0.2,0-0.3,0-0.5c0-0.2,0.1-0.3,0.2-0.4c0.1-0.1,0.2-0.2,0.4-0.3c0.1-0.1,0.3-0.1,0.5-0.1H99c0.1,0,0.1,0,0.2,0
	c0.1,0,0.1-0.1,0.2-0.1l0.1-0.1c0.9-0.9,2-1.4,3.3-1.4c1.2,0,2.4,0.5,3.3,1.4l0.1,0.1c0,0,0.1,0.1,0.2,0.1c0.1,0,0.1,0,0.2,0h2.1
	V30.6z"/>
<path d="M86.7,16.7C86.7,16.7,86.7,16.7,86.7,16.7c0.4,0.1,0.7,0.1,1.1,0.1c0,0,0,0,0.1,0c0.2,0.4,0.5,0.6,0.8,0.8
	c0.4,0.2,0.8,0.2,1.1,0.2l0.6-0.1c0.4,0.3,0.8,0.4,1.3,0.3l1.3-0.2c0.1,0.2,0.2,0.4,0.4,0.5l3.8,3.8c0,0,0.1,0.1,0.2,0.1
	c0.1,0,0.1,0,0.2,0c0.1,0,0.1,0,0.2,0c0.1,0,0.1-0.1,0.2-0.1l3.8-3.8c0.4-0.4,0.7-1,0.7-1.7s-0.3-1.2-0.7-1.7
	c-0.4-0.4-1-0.7-1.7-0.7c-0.6,0-1.2,0.3-1.7,0.7l-0.8,0.8l-0.2-0.2c0.4-0.3,0.6-0.8,0.7-1.3c0.1-0.5,0-1-0.2-1.4c0,0,0-0.1,0-0.1
	l0.2-1c0.1-0.4,0.1-0.9,0-1.3c-0.1-0.4-0.3-0.8-0.6-1.2l-2-2.2c-0.3-0.3-0.6-0.6-1-0.7C94,6.1,93.6,6,93.2,6l-8,0.2l-6.6-3.3
	c-0.1,0-0.2-0.1-0.3-0.1c-0.1,0-0.2,0-0.3,0.1C78.1,2.9,78,3,78,3.1c0,0.1-0.1,0.2-0.1,0.3v7.9c0,0.1,0,0.2,0.1,0.3
	c0.1,0.1,0.1,0.2,0.2,0.2l4.1,1.9l0.8,1C84,15.7,85.2,16.4,86.7,16.7C86.6,16.7,86.7,16.7,86.7,16.7z M89.1,16.7
	c0.2-0.1,0.4-0.1,0.6-0.2c0,0.1,0,0.2,0.1,0.3l-0.1,0C89.4,16.8,89.2,16.8,89.1,16.7L89.1,16.7z M91.5,17c-0.1,0-0.3,0-0.4,0
	s-0.2-0.1-0.3-0.2c-0.1-0.1-0.1-0.2-0.1-0.3c0-0.1,0-0.2,0-0.3c0-0.1,0.1-0.2,0.2-0.3l0.5-0.3l1.3,0.2c-0.1,0.3-0.2,0.6-0.2,0.9
	c0,0,0,0.1,0,0.1L91.5,17z M97.2,16.9c0,0,0.1,0.1,0.2,0.1c0.1,0,0.1,0,0.2,0c0.1,0,0.1,0,0.2,0c0.1,0,0.1-0.1,0.2-0.1l1.2-1.2
	c0.1-0.1,0.3-0.2,0.4-0.3c0.2-0.1,0.3-0.1,0.5-0.1c0.2,0,0.3,0,0.5,0.1c0.2,0.1,0.3,0.2,0.4,0.3c0.1,0.1,0.2,0.3,0.3,0.4
	s0.1,0.3,0.1,0.5c0,0.2,0,0.3-0.1,0.5c-0.1,0.2-0.2,0.3-0.3,0.4L97.5,21l-3.4-3.4c-0.2-0.2-0.4-0.5-0.4-0.8c0-0.3,0.1-0.6,0.2-0.9
	l1.7,0.2c0.2,0,0.5,0,0.7,0L97.2,16.9z M83.9,13.9L83,12.8c-0.1-0.1-0.1-0.1-0.2-0.1l-3.9-1.8V4.2l5.9,3c0.1,0,0.2,0.1,0.2,0.1
	l8.1-0.2c0,0,0,0,0,0c0.3,0,0.5,0.1,0.8,0.2c0.2,0.1,0.5,0.3,0.6,0.5l2,2.2c0.2,0.2,0.3,0.5,0.4,0.8c0.1,0.3,0.1,0.6,0,0.8L96.9,12
	c-0.2-0.1-0.4-0.2-0.6-0.2l-1-0.2l0.1-0.5c0-0.1,0-0.3-0.1-0.4c-0.1-0.1-0.2-0.2-0.3-0.2c-0.1,0-0.3,0-0.4,0.1
	c-0.1,0.1-0.2,0.2-0.2,0.3l-0.1,0.5l-0.8-0.2L93,9.7c-0.1-0.1-0.2-0.2-0.3-0.3c-0.1-0.1-0.3-0.1-0.4,0c-0.1,0.1-0.2,0.2-0.3,0.3
	C92,9.8,92,10,92,10.1l0.3,0.9l-1.1-0.2c-0.1,0-0.1,0-0.2,0c-0.1,0-0.1,0-0.2,0.1c-0.1,0-0.1,0.1-0.1,0.1c0,0.1-0.1,0.1-0.1,0.2
	c0,0.1,0,0.1,0,0.2c0,0.1,0,0.1,0.1,0.2c0,0.1,0.1,0.1,0.1,0.1c0.1,0,0.1,0.1,0.2,0.1l5.1,1.1c0.3,0.1,0.5,0.2,0.7,0.5
	c0.2,0.2,0.2,0.5,0.2,0.8s-0.2,0.5-0.4,0.7c-0.2,0.2-0.5,0.3-0.8,0.2l-4.3-0.5c-0.1,0-0.2,0-0.3,0.1l-0.4,0.2c0,0,0,0,0,0
	c-0.1,0-0.2,0.1-0.3,0.2l-0.9,0.4c-0.8,0.4-1.7,0.5-2.6,0.3c0,0,0,0,0,0c0,0-0.1,0-0.1,0C85.7,15.4,84.7,14.8,83.9,13.9L83.9,13.9z"
	/>
<path d="M30.3,7.4c-1.4-1.1-3.1-1.8-4.9-1.8c-2.1,0-4.1,0.8-5.6,2.3c-0.3,0.3-0.6,0.7-0.9,1.1c-1.5-2.2-3.9-3.5-6.4-3.5
	c-0.5,0-0.9,0-1.4,0.1c-2.4,0.4-4.3,1.8-5.7,4c-1.9,3.2-2.1,6.1-0.5,9c0.9,1.5,2,3,3.4,4.6c2.7,2.8,5.8,5.5,9.9,8.5
	c0.2,0.2,0.5,0.2,0.7,0.2c0.4,0,0.6-0.2,0.8-0.3c3.6-2.6,6.6-5.1,9.1-7.7c1.4-1.4,3-3.2,4.2-5.4c0.5-0.9,1-2.2,1-3.6
	C33.8,11.9,32.6,9.3,30.3,7.4z M31.4,17.8c-1.1,2-2.6,3.7-3.9,5c-2.4,2.4-5.2,4.9-8.7,7.4c-3.9-2.8-6.8-5.4-9.3-8.1
	c-1.3-1.4-2.4-2.8-3.2-4.2c-1.3-2.3-1.2-4.6,0.4-7.2c1.1-1.8,2.6-2.9,4.5-3.2c0.4-0.1,0.7-0.1,1.1-0.1c2.3,0,4.3,1.3,5.5,3.4
	c0.1,0.1,0.1,0.2,0.2,0.4c0.1,0.3,0.4,0.5,0.7,0.5c0,0,0,0,0,0c0.3,0,0.6-0.2,0.7-0.5c0.4-0.8,0.8-1.5,1.4-2
	c1.1-1.2,2.7-1.8,4.4-1.8c1.4,0,2.8,0.5,3.9,1.4c1.9,1.6,2.9,3.7,3,6.3C32.2,16,31.8,17,31.4,17.8z"/>
<path d="M134.4,16.8c-0.2-0.1-0.5-0.1-0.7,0.2l-2.9,5l-1-1.7c-0.1-0.2-0.4-0.3-0.7-0.2c-0.2,0.1-0.3,0.4-0.2,0.7l1.4,2.5
	c0.1,0.2,0.3,0.2,0.4,0.2c0.2,0,0.3-0.1,0.4-0.2l3.4-5.7C134.7,17.2,134.6,16.9,134.4,16.8z"/>
<path d="M131.7,13.2c-3.8,0-6.9,3.1-6.9,6.9c0,3.8,3.1,6.9,6.9,6.9s6.9-3.1,6.9-6.9C138.6,16.3,135.5,13.2,131.7,13.2z M131.7,25.9
	c-3.2,0-5.8-2.6-5.8-5.8c0-3.2,2.6-5.8,5.8-5.8c3.2,0,5.8,2.6,5.8,5.8C137.5,23.3,134.9,25.9,131.7,25.9z"/>
<path d="M147.6,14.8c-0.1-0.2-0.2-0.3-0.3-0.3l-9.6-2.7l-5.5-8.3c-0.2-0.3-0.7-0.3-0.9,0l-5.5,8.3l-9.6,2.7c-0.2,0-0.3,0.2-0.3,0.3
	c-0.1,0.2,0,0.3,0.1,0.5l6.2,7.8l-0.4,10c0,0.2,0.1,0.3,0.2,0.4c0.1,0.1,0.3,0.1,0.5,0.1l9.4-3.5l9.4,3.5c0.1,0,0.1,0,0.2,0
	c0.1,0,0.2,0,0.3-0.1c0.1-0.1,0.2-0.3,0.2-0.4l-0.4-10l6.2-7.8C147.7,15.1,147.7,15,147.6,14.8z M140.4,22.6
	c-0.1,0.1-0.1,0.2-0.1,0.3l0.4,9.4l-8.8-3.3c-0.1,0-0.1,0-0.2,0c-0.1,0-0.1,0-0.2,0l-8.8,3.3l0.4-9.4c0-0.1,0-0.2-0.1-0.3l-5.9-7.4
	l9.1-2.5c0.1,0,0.2-0.1,0.3-0.2l5.2-7.9l5.2,7.9c0.1,0.1,0.2,0.2,0.3,0.2l9.1,2.5L140.4,22.6z"/>
<g>
	<g id="Layer_1-2">
		
			<image style="overflow:visible;enable-background:new    ;" width="160" height="160" xlink:href="BEE8F8D309CF28D5.png"  transform="matrix(0.1937 0 0 0.1937 154 3)">
		</image>
	</g>
</g>
<g id="Layer_1-2_1_">
	
		<image style="overflow:visible;enable-background:new    ;" width="160" height="160" xlink:href="BEE8F8D309CF28D7.png"  transform="matrix(0.1937 0 0 0.1937 191 3)">
	</image>
</g>
<g>
	<g id="Layer_1-2_2_">
		
			<image style="overflow:visible;enable-background:new    ;" width="160" height="160" xlink:href="BEE8F8D309CF28D2.png"  transform="matrix(0.1937 0 0 0.1937 3 41)">
		</image>
	</g>
</g>
<title>Asset 3</title>
<g>
	<g id="Layer_1-2_3_">
		
			<image style="overflow:visible;enable-background:new    ;" width="160" height="160" xlink:href="BEE8F8D309CF28D3.png"  transform="matrix(0.1937 0 0 0.1937 41 41)">
		</image>
	</g>
</g>
<title>Asset 4</title>
<g>
	<g id="Layer_1-2_4_">
		
			<image style="overflow:visible;enable-background:new    ;" width="160" height="160" xlink:href="BEE8F8D309CF28DD.png"  transform="matrix(0.1937 0 0 0.1937 79 41)">
		</image>
	</g>
</g>
<title>Asset 5</title>
<g>
	<g id="Layer_1-2_5_">
		
			<image style="overflow:visible;enable-background:new    ;" width="120" height="120" xlink:href="BEE8F8D309CF28DF.png"  transform="matrix(0.2583 0 0 0.2583 117 41)">
		</image>
	</g>
</g>
<title>Asset 6</title>
<g>
	<g id="Layer_1-2_6_">
		
			<image style="overflow:visible;enable-background:new    ;" width="160" height="160" xlink:href="BEE8F8D309CF28D0.png"  transform="matrix(0.1937 0 0 0.1937 155 41)">
		</image>
	</g>
</g>
<g>
	<g>
		<path d="M208.2,60.3l11.9-11.9c1.1-1.1,1.1-2.9,0-3.9c-1.1-1.1-2.8-1.1-3.9,0l-9.9,9.8l-9.8-9.8c-1.1-1.1-2.8-1.1-3.9,0
			c-0.5,0.5-0.8,1.3-0.8,2s0.3,1.5,0.8,2l11.8,11.9c0.5,0.5,1.3,0.8,2,0.8C206.9,61.1,207.7,60.8,208.2,60.3z M205.7,58.9
			l-11.8-11.8c-0.3-0.3-0.3-0.9,0-1.2c0.3-0.3,0.9-0.3,1.2,0l10.5,10.5c0.4,0.4,1,0.4,1.4,0l10.5-10.6c0.4-0.3,0.9-0.3,1.2,0
			c0.2,0.2,0.3,0.4,0.3,0.6c0,0.2-0.1,0.4-0.3,0.6l-11.9,11.9c-0.2,0.2-0.4,0.3-0.6,0.3C206.1,59.1,205.8,59,205.7,58.9z"/>
	</g>
</g>
<g>
	<g>
		<path d="M208.3,69.3l11.9-11.9c1.1-1.1,1.1-2.9,0-3.9c-1.1-1.1-2.8-1.1-3.9,0l-9.9,9.8l-9.8-9.8c-1.1-1.1-2.8-1.1-3.9,0
			c-0.5,0.5-0.8,1.3-0.8,2s0.3,1.5,0.8,2l11.8,11.9c0.5,0.5,1.3,0.8,2,0.8C207,70.1,207.8,69.8,208.3,69.3z M205.7,68l-11.8-11.8
			c-0.3-0.3-0.3-0.9,0-1.2c0.3-0.3,0.9-0.3,1.2,0l10.5,10.5c0.4,0.4,1,0.4,1.4,0l10.5-10.6c0.4-0.3,0.9-0.3,1.2,0
			c0.2,0.2,0.3,0.4,0.3,0.6s-0.1,0.4-0.3,0.6L206.8,68c-0.2,0.2-0.4,0.3-0.6,0.3C206.1,68.2,205.8,68.1,205.7,68z"/>
	</g>
</g>
<path class="st0" d="M32.4,88.1c0-2.4-1.9-4.3-4.3-4.3c-0.4,0-0.7,0.1-1.1,0.1c-0.3-2.2-2.2-3.9-4.4-3.9c-1.2,0-2.3,0.5-3.1,1.3
	C19,80,17.7,79,16.1,79c-2.1,0-3.8,1.7-3.8,3.8c0,0.3,0,0.6,0.1,0.8c-0.4-0.2-0.9-0.3-1.4-0.3c-2,0-3.6,1.6-3.6,3.6
	c0,0.5,0.1,1,0.3,1.5c-1.3,0.5-2.3,1.8-2.3,3.3c0,1.1,0.5,2,1.2,2.6c-0.2,0.5-0.3,1-0.3,1.6c0,2.6,2.1,4.7,4.7,4.7
	c1.5,0,2.7-0.7,3.6-1.7c1.6,1.2,3.2,4,0.9,10.1h6c0,0-3.7-5.7,0-8.9c0.7,1.1,1.9,1.7,3.3,1.7c2.2,0,4-1.8,4-4c0-0.2,0-0.4,0-0.6
	c2-0.3,3.5-2,3.5-4c0-0.9-0.3-1.7-0.8-2.4C32.1,90.1,32.4,89.2,32.4,88.1z"/>
<title>Asset 11</title>
<g>
	<g id="Layer_1-2_7_">
		
			<image style="overflow:visible;enable-background:new    ;" width="160" height="160" xlink:href="BEE8F8D309CF28D1.png"  transform="matrix(0.1937 0 0 0.1937 154 3)">
		</image>
	</g>
</g>
</svg>
